<?xml version="1.0" encoding="utf-8"?>
<!-- Generator: Adobe Illustrator 24.1.2, SVG Export Plug-In . SVG Version: 6.00 Build 0)  -->
<svg version="1.1" id="Слой_1" xmlns="http://www.w3.org/2000/svg" xmlns:xlink="http://www.w3.org/1999/xlink" x="0px" y="0px"
	 viewBox="0 0 595.3 841.9" style="enable-background:new 0 0 595.3 841.9;" xml:space="preserve" width="200" height="200">
<style type="text/css">
	.st0{fill:#E3E3E3;}
	.st1{fill:#F5F5F5;}
	.st2{fill:#FFFFFF;stroke:#000000;stroke-miterlimit:10;}
	.st3{fill:#FFFFFF;}
	.st4{fill:#69908C;}
	.st5{fill:#77A4A0;}
	.st6{fill:#7AA8A4;}
	.st7{fill:none;stroke:#FFFFFF;stroke-miterlimit:10;}
	.st8{fill:#9AD7D4;}
	.st9{fill:#FFFFFF;stroke:#FFFFFF;stroke-miterlimit:10;}
	.st10{fill:#F5F5F5;stroke:#FFFFFF;stroke-miterlimit:10;}
</style>
<g>
	<path class="st0" d="M397.4,356.1c-6.7,15.6-60.5,12.9-102.6-0.7c-44.6-14.4-57.6-34.9-94.5-35c-6.2,0-19.1,0.5-21.6-5.3
		c-2.8-6.6,9.4-18.4,16.9-24c6.2-4.5,12-6.8,19.8-9.9c8.2-3.2,15.3-5.1,20.5-6.3c3.5-0.8,16.9-3.6,35.3-3.1c11,0.3,35.5,1.2,61.9,14
		c12.5,6,22.2,13.2,27.3,17c6.6,4.9,12.1,9,17.6,14.9C380.1,319.9,402.6,344,397.4,356.1z"/>
	<g>
		<path class="st1" d="M362.8,370.1c-7.7,0.3-18.8,0.8-31.5-1.6c-9.2-1.7-8.8-3-26.7-8.2c-5.3-1.5-9.8-2.7-14-3.8
			c-3-9.9-7.4-16.6-10.9-16.5c-2.9,0.1-5.4,4.7-7.6,12.2c-39.9-8.8-51.6-6.9-71-17.9c-16.8-9.5-23.4-19.6-24.3-18.6
			c-1.9,1.9,29.7,32.7,43.6,38.1c11.8,4.6,11.8,1.9,48.7,11.1c-5.8,29.9-8.8,78.9-9.7,102.5c-2,52-4,118.5,23.1,129
			c1.5,0.6,8.8,3.4,14,0c0.7-0.5,1.3-1,1.8-1.7c2.5-1.2,4.9-3.3,6.6-5.4c4.2-5.4,3.9-12,3.1-19.8c-2.3-21.2-6.6-35.2-6.6-35.2
			c-4-12.9-10.1-32.8-12.6-54c-1.8-15-3.3-27.3-0.2-43.3c2.1-10.9,4-15.8,9.2-42.3c0,0,2.9-14.8,2.8-21.7c1.4,0.4,3,0.8,4.6,1.2
			c3.5,0.9,28.8,7.1,37.1,8.3c26.8,3.8,52.8-20.3,52.6-20.6c-0.1-0.2-7.5,4.8-19.8,7C371.5,369.7,368.6,369.9,362.8,370.1z
			 M293.8,371.4L293.8,371.4L293.8,371.4L293.8,371.4L293.8,371.4z"/>
	</g>
	<path class="st2" d="M288.8,480.5"/>
	<path class="st3" d="M334.1,368.9c22.2,3.1,59.7,1.8,64.9-12.1c6.9-18.5-47.4-74.6-113.8-81.8c-53.9-5.8-109.5,21.3-109,38.9
		c0.4,13.3,32.7,25.7,46.7,29.7c4.3,1.2,12.5,2.6,29.1,5.5c0,0,26.6,4.5,44.3,8.6c2.1,0.5,5,1.2,8.5,2.4c4,1.4,6,2.4,8.8,3.5
		c3.1,1.2,7.6,2.7,13.7,3.7C327.1,367.5,330.7,368.4,334.1,368.9z"/>
	<g>
		<path class="st3" d="M167.8,490.7c2,7.8,3.8,12.8,5.4,15.1c0.2,0.3,0.5,0.6,0.9,1s0.7,0.7,0.8,0.9c0.1,0.2,0.1,0.3-0.1,0.4
			c-0.5,0.4-1.4,0.1-2.6-0.6c-1-0.7-1.7-1.4-2.2-2.1c-1.6-2.4-3.5-7.5-5.5-15.4c-5.9-1.5-10.2-4.3-12.9-8.2c-1.1-1.6-1.8-3.1-2-4.6
			c-0.3-1.9,0.3-3.3,1.7-4.2c1.7-1.2,3.8-1,6.4,0.4c2.2,1.2,3.9,2.8,5.3,4.8c1.7,2.4,2.9,5.4,3.8,9l23.7,4.2
			c6.6,1.1,11.2,2.1,13.9,2.9c6.4,1.8,10.4,4,12.3,6.6c1.6,2.2,1.5,4.1-0.1,5.6c1,0.7,1.5,1.2,1.7,1.4c0.2,0.2,0.1,0.5-0.2,0.6
			c-0.2,0.2-0.7,0-1.3-0.3l-1.3-0.9c-3.3,2-8.4,2.6-15.1,1.7s-10.9-2.3-12.3-4.4c-1-1.5-0.9-2.7,0.4-3.6c1.8-1.3,5.4-1.6,10.6-1.1
			c5.2,0.5,10.4,2.3,15.7,5.1c0.3-0.2,0.6-0.3,0.7-0.4c1-0.7,1.1-1.5,0.5-2.4c-1.2-1.7-4.9-3.3-11-4.8c-2.3-0.6-6.4-1.3-12.4-2.4
			l-15-2.6L167.8,490.7z M163.5,486.2c-0.9-3.2-2.2-6.1-4-8.7c-2.7-3.9-5.1-5-7.2-3.5c-1.8,1.3-1.8,3.3,0.2,6.1
			C154.5,483,158.1,485.1,163.5,486.2z M213.4,505.7c-4.1-2.4-8.6-3.9-13.7-4.5c-5.1-0.6-8.4-0.4-9.8,0.6c-0.5,0.4-0.6,0.8-0.3,1.3
			c0.8,1.2,3.8,2.2,8.9,3C203.6,507,208.6,506.8,213.4,505.7z"/>
		<path class="st3" d="M191.8,525.9c-5-1.1-8.1-2.4-9.1-3.9c-0.8-1.1-0.6-2.1,0.6-2.9c1.4-1,3.4-1.4,6-1.3l6.3,0.8l-11.3-3.5
			c-6.1-2.2-9.8-4.1-11-5.9c-0.1-0.2-0.1-0.4,0.1-0.5c0.3-0.2,0.7-0.1,1.1,0.4c0.6,0.6,1.4,1.2,2.4,1.8c1.2,0.7,4.2,1.9,9,3.5
			c2.2,0.8,5.5,1.8,10,3.1c0.8,0.2,2.1,0.5,3.7,1c0.6,0.3,1,0.6,1.3,1c0.7,1,0.8,1.8,0.1,2.2c-0.7,0.5-3.2,0.3-7.5-0.4
			c-4.4-0.7-7.1-0.7-8.2,0.1c-0.3,0.2-0.3,0.5-0.1,0.8c0.7,1.1,4.3,2.1,10.8,3.2c6.4,1,9.8,1.8,10.2,2.3c0.2,0.3,0.2,0.6,0.1,1
			s-0.2,0.7-0.5,0.9c-0.4,0.3-3.1,0.1-8-0.6s-7.8-0.7-8.7-0.1c-0.4,0.3-0.4,0.7,0,1.3c0.4,0.6,0.5,1,0.2,1.2c-0.3,0.2-0.8-0.1-1.4-1
			c-1.1-1.5-1-2.7,0.1-3.4C188.6,526.4,190,526.1,191.8,525.9z"/>
		<path class="st3" d="M212,541.1l-12.6-3.9c-6.1-2.2-9.7-4.1-10.9-5.9c-0.1-0.2-0.1-0.4,0.1-0.6c0.3-0.2,0.6-0.2,0.9,0.1
			c1.2,1.1,2.3,1.9,3.1,2.3c1.3,0.7,4.6,2,9.8,3.7c2.3,0.8,5.9,1.8,10.6,3.1c1.9,0.4,3.1,0.8,3.4,1.3c0.7,1,0.7,1.7,0.1,2.1
			c-0.8,0.5-3.1,0.6-6.9,0.3c6.1,1.6,9.6,3.1,10.7,4.6c0.4,0.5,0.5,1.1,0.5,1.7s-0.3,1.1-0.7,1.4c-0.7,0.5-2,0.7-4,0.6
			c5.9,1.3,9.5,3,11,5c0.8,1.2,0.8,2.1-0.1,2.8c-1.2,0.8-4.2,0.7-9.1-0.2c-4.9-1-7.6-1.3-8.2-0.9c-0.4,0.3-0.4,0.8,0,1.4
			c0.4,0.6,0.5,1,0.2,1.2c-0.3,0.2-0.9-0.2-1.6-1.2c-1-1.4-0.9-2.5,0.3-3.3c1.3-0.9,4.2-1,8.8-0.4c4.5,0.7,6.9,0.9,7.3,0.7
			c0.2-0.1,0.2-0.3,0-0.6c-0.7-1.1-4-2.3-9.7-3.7c-4.7-1.2-8.4-1.9-11-2.2c-1.6-0.2-2.6-0.4-2.8-0.9c-0.5-0.7-0.4-1.3,0.2-1.7
			c0.6-0.4,3.4-0.3,8.3,0.5c4.9,0.8,7.7,0.9,8.4,0.4c0.3-0.2,0.3-0.5,0.1-0.8c-0.6-0.9-3.6-2-8.8-3.3c-4.5-1.1-7.9-1.7-10.1-1.9
			c-1.8-0.1-2.9-0.5-3.3-1.2c-0.4-0.6-0.4-1.1,0.1-1.4c0.6-0.4,3.3-0.4,7.9,0L212,541.1z"/>
		<path class="st3" d="M219.5,572.8c-0.5,0.3-0.3,1,0.4,2c0.2,0.2,0.1,0.5-0.2,0.6c-0.3,0.2-0.9-0.3-1.7-1.4
			c-0.9-1.3-0.8-2.5,0.4-3.3c1.4-1,5.8-1,13.1-0.2l-10.7-3.4c-6.4-2-10.2-4-11.5-6c-0.1-0.2-0.1-0.4,0.1-0.6
			c0.3-0.2,0.6-0.2,0.9,0.1c1,1,2,1.8,3.2,2.4c1.4,0.7,4.8,2,10.3,3.9l12.2,3.7c0.4,0.3,0.8,0.7,1.2,1.3c0.4,0.6,0.3,1.1-0.4,1.6
			c-0.7,0.5-3.6,0.4-8.7-0.4C222.9,572.6,220,572.4,219.5,572.8z M245.3,572.5c-0.6-0.9-0.5-1.6,0.4-2.2c0.7-0.5,1.6-0.5,2.8,0
			c1.1,0.4,1.9,1,2.4,1.8c0.6,0.9,0.5,1.7-0.5,2.4c-0.7,0.5-1.6,0.4-2.7-0.2C246.6,573.9,245.8,573.3,245.3,572.5z"/>
		<path class="st3" d="M239.1,588c7.4,2.2,11.7,4.3,13.1,6.3c0.9,1.3,0.8,2.3-0.4,3.1c-1,0.7-3.8,0.5-8.4-0.6s-7.2-1.4-7.7-1
			c-0.5,0.4-0.6,0.9-0.2,1.6c0.4,0.7,0.5,1.1,0.2,1.3c-0.3,0.2-1-0.3-1.9-1.6c-1-1.5-0.9-2.7,0.3-3.5c1.1-0.7,2.9-0.9,5.5-0.6
			c1.3,0.2,3.5,0.6,6.6,1.3c2.3,0.5,3.6,0.7,3.8,0.5c0.2-0.2,0.2-0.4,0-0.7c-0.7-1-3.5-2.3-8.5-4c-4.1-1.4-7.3-2.3-9.6-2.7
			c-3-0.5-4.6-1-4.8-1.4c-0.2-0.3-0.3-0.6-0.1-1c0.1-0.4,0.3-0.7,0.6-0.9c0.4-0.3,2.8-0.1,7.3,0.4l8,1l-10-3.2l-7.2-2.5
			c-3.4-1.4-5.6-2.8-6.6-4.2c-0.2-0.2-0.1-0.4,0.1-0.6c0.3-0.2,0.7-0.1,1.1,0.3c0.6,0.6,1.4,1.2,2.4,1.9c1.4,0.9,5.1,2.3,11,4.3
			c5.3,1.7,9.2,2.8,11.8,3.4c0.4,0.1,1,0.3,1.8,0.6c0.3,0.2,0.6,0.5,0.8,0.8c0.2,0.3,0.3,0.7,0.4,1.1s-0.1,0.8-0.4,1
			C247.6,588.4,244.6,588.3,239.1,588z"/>
		<path class="st3" d="M249.9,605.6l-7.8-2.8c-3.8-1.5-6.2-3-7.2-4.4c-0.1-0.2-0.1-0.4,0.1-0.5c0.3-0.2,0.7-0.2,1,0.1
			c0.9,1,1.9,1.7,2.8,2.2c1.6,0.9,4.6,2,9,3.5l10.4,3.3c2.1,0.6,3.2,1,3.4,1.3c0.3,0.5,0.4,1.1,0.3,2c1.5,0.5,2.5,1.2,3,2
			c0.8,1.2,0.6,2.3-0.6,3.1c-1.8,1.3-5.4,1.5-10.8,0.5c-5.4-1-8.8-2.4-10.1-4.3c-1.3-1.8-1-3.4,0.8-4.6
			C245.2,606.3,247.1,605.8,249.9,605.6z M257.5,609.9c-5.6-1.6-9.3-1.7-11.2-0.4c-0.8,0.6-0.9,1.3-0.4,2.1c0.9,1.3,3.9,2.4,9,3.1
			c-0.7-1.7-0.3-3.1,1.2-4.2C256.5,610.3,257,610.1,257.5,609.9z M256.1,614.8c1,0.3,2.3,0.4,3.8,0.3c1.7-0.1,2.9-0.4,3.6-0.8
			c0.6-0.5,0.8-1,0.4-1.6c-0.6-0.9-1.7-1.4-3.4-1.6s-2.9,0-3.8,0.6C255.8,612.4,255.6,613.4,256.1,614.8z"/>
		<path class="st3" d="M266.9,634.4c-5-1.1-8-2.4-9.1-3.9c-0.8-1.1-0.6-2.1,0.6-2.9c1.4-1,3.4-1.4,6-1.3l6.3,0.8l-11.3-3.5
			c-6.1-2.2-9.8-4.2-11-5.9c-0.1-0.2-0.1-0.4,0.1-0.5c0.3-0.2,0.7-0.1,1.1,0.4c0.6,0.6,1.4,1.2,2.4,1.8c1.2,0.7,4.2,1.9,9,3.5
			c2.2,0.8,5.5,1.8,10,3.1c0.8,0.2,2.1,0.5,3.7,1c0.6,0.3,1,0.6,1.3,1c0.7,1,0.8,1.8,0.1,2.2c-0.7,0.5-3.2,0.3-7.5-0.4
			s-7.1-0.7-8.2,0.1c-0.3,0.2-0.3,0.5-0.1,0.8c0.7,1.1,4.3,2.1,10.8,3.2c6.4,1,9.8,1.8,10.2,2.3c0.2,0.3,0.2,0.6,0.1,1
			s-0.2,0.7-0.5,0.9c-0.4,0.3-3.1,0.1-8-0.6c-4.9-0.7-7.8-0.7-8.7-0.1c-0.4,0.3-0.4,0.7,0,1.3s0.5,1,0.2,1.2c-0.3,0.2-0.8-0.1-1.4-1
			c-1-1.5-1-2.7,0-3.4C263.7,635,265,634.6,266.9,634.4z"/>
		<path class="st3" d="M273.7,645.3c-5.5-1.7-8.9-3.6-10.2-5.5c-0.1-0.2-0.1-0.4,0.1-0.5c0.3-0.2,0.6-0.2,1,0.1
			c0.6,0.6,1.6,1.3,3.1,2.4c1.5,0.8,6.2,2.5,14,4.9c7.4,2.3,11.1,3.5,11.2,3.6c0.3,0.4,0.4,0.9,0.3,1.6c-0.1,0.6-0.3,1.1-0.7,1.4
			c-1.2,0.8-4.1,1.3-8.6,1.4c-3.9,0.1-7-0.1-9.2-0.5c0.5,0.8,0.7,1.3,0.4,1.5c-0.4,0.2-0.8,0-1.3-0.8c-0.1-0.2-0.3-0.5-0.5-1
			c-0.2-0.4-0.4-0.8-0.5-1c-0.1-0.1-0.3-0.3-0.5-0.6s-0.4-0.5-0.5-0.6C270.1,649.4,270.8,647.3,273.7,645.3z M273.1,650.9l1.5-2.2
			c0.7-1.1,0.9-1.8,0.7-2.2c-0.3-0.4-0.7-0.4-1.3,0s-1,1-1.4,1.8c-0.4,0.9-0.4,1.6,0,2.2C272.7,650.7,272.9,650.8,273.1,650.9z
			 M274.5,651.1c1.9,0.6,4.5,0.8,8,0.6c3.2-0.2,5.9-0.5,8-1.2l-14-4.5c0.4,0.7,0.3,1.6-0.3,2.7L274.5,651.1z"/>
	</g>
	<g>
		<path class="st3" d="M301.2,611.9c0.5,0.2,0.8,0.3,0.9,0.4c0.3,0.2,0.8,1.8,1.5,4.8l1.3,5.5c2.6,9.8,5.3,18.8,8.1,27
			c1.4,4.1,2.5,7.2,3.5,9.4c0.7,1.6,0.9,2.7,0.5,3.2c-0.6,1-1.3,1.2-2.1,0.7c-1.8-1.1-6.3-14.8-13.3-41c-0.5-1.9-1-4.3-1.5-7.3
			c-1.5,4.1-2.6,9.3-3.2,15.7c0,0.6-0.1,1-0.3,1.2c-0.4,0.7-1,0.7-2,0.2c-1-0.6-1-3.5,0.1-8.5c0.8-3.5,1.6-6.7,2.6-9.5
			c1.2-3.5,2.6-6.6,4.3-9.3c1.9-3.1,3.8-5.1,5.8-5.9c2.2-0.9,4.8-0.5,7.7,1.2c2.7,1.6,4.2,5.1,4.6,10.5c0.5,6.3-1.4,13.1-5.5,20.6
			c1.3,0.1,4.1,0.8,8.4,2.1c3.9,1.1,6.2,1.7,6.8,1.5c0.6-0.1,1.3-0.7,1.9-1.8c0.1-0.2,0.3-0.3,0.5-0.3c0.4,0.2,0.4,0.9,0.2,2
			c-0.2,0.9-0.5,1.6-0.8,2.1c-0.4,0.7-1,1.2-1.8,1.6s-2,0.4-3.5-0.2l-5.8-1.9c-2.2-0.7-4.2-1.2-5.9-1.5c-0.6-0.1-1.6-0.2-2.7-0.1
			c-1.1,0.3-1.8,0.4-1.9,0.3c-0.5-0.3-0.2-1.2,0.8-2.9c0.4-0.6,0.9-1,1.6-1.1c1.7-2.8,2.9-6.7,3.8-11.6c0.9-4.9,1-8.9,0.3-12
			c-0.8-3.7-2-6-3.6-6.9c-2.6-1.5-5.2,0-8,4.7C303.5,606.7,302.4,609,301.2,611.9z"/>
		<path class="st3" d="M340.3,610c1.1,5,1.1,8.3,0.2,9.9c-0.7,1.2-1.6,1.4-2.9,0.7c-1.4-0.8-2.6-2.5-3.6-4.9l-1.9-6l1.5,11.8
			c0.6,6.5,0.3,10.6-0.8,12.5c-0.1,0.2-0.3,0.3-0.5,0.1c-0.3-0.2-0.3-0.6-0.1-1.2c0.3-0.8,0.5-1.7,0.6-2.9c0.2-1.4,0-4.6-0.5-9.6
			c-0.2-2.3-0.7-5.8-1.4-10.4c-0.2-0.8-0.4-2.1-0.6-3.8c0-0.6,0.1-1.2,0.3-1.5c0.6-1.1,1.3-1.4,2-1c0.7,0.4,1.6,2.7,2.8,7
			c1.2,4.3,2.4,6.7,3.5,7.4c0.3,0.2,0.5,0.1,0.8-0.2c0.7-1.1,0.1-4.8-1.6-11.1s-2.5-9.7-2.2-10.2c0.2-0.3,0.4-0.4,0.8-0.5
			c0.4-0.1,0.7-0.1,1,0.1c0.4,0.3,1.4,2.8,2.8,7.5s2.6,7.4,3.5,7.9c0.4,0.2,0.8,0,1.2-0.6c0.4-0.6,0.7-0.8,1-0.7
			c0.3,0.2,0.2,0.8-0.3,1.7c-0.9,1.6-2,2-3.1,1.4C342.1,612.7,341.2,611.7,340.3,610z"/>
		<path class="st3" d="M347.3,599.3c0.7,5.7,0.5,9.5-0.7,11.6c-0.1,0.2-0.3,0.3-0.5,0.1c-0.3-0.2-0.4-0.5-0.3-0.9
			c0.3-0.8,0.5-2.1,0.8-3.8c0.1-1.8-0.4-6.7-1.4-14.7c-1-7.7-1.5-11.5-1.4-11.7c0.3-0.4,0.7-0.8,1.3-1s1.1-0.2,1.5,0
			c1.3,0.8,2.9,3.2,4.9,7.2c1.7,3.5,2.9,6.4,3.4,8.6c0.5-0.8,0.9-1.2,1.2-1c0.4,0.2,0.3,0.7-0.2,1.5c-0.1,0.2-0.3,0.5-0.6,0.9
			s-0.5,0.7-0.6,0.9c-0.1,0.2-0.2,0.4-0.3,0.7c-0.1,0.3-0.2,0.6-0.3,0.7C352.5,600.8,350.3,601.1,347.3,599.3z M352.3,596.2
			c-0.3-1.9-1.2-4.4-2.8-7.5c-1.5-2.8-2.9-5.1-4.4-6.7l1.8,14.6c0.5-0.6,1.4-0.9,2.6-0.8L352.3,596.2z M352.6,597.5L350,597
			c-1.3-0.2-2-0.1-2.3,0.3c-0.2,0.4-0.1,0.8,0.5,1.2s1.3,0.5,2.2,0.5c1,0,1.6-0.3,2-0.9C352.6,597.9,352.7,597.7,352.6,597.5z"/>
		<path class="st3" d="M357,582.9c0.7,5.7,0.5,9.5-0.7,11.6c-0.1,0.2-0.3,0.3-0.5,0.1c-0.3-0.2-0.4-0.5-0.3-0.9
			c0.3-0.8,0.5-2.1,0.8-3.8c0.1-1.8-0.4-6.7-1.4-14.7c-1-7.7-1.5-11.5-1.4-11.7c0.3-0.4,0.7-0.8,1.3-1s1.1-0.2,1.5,0
			c1.3,0.8,2.9,3.2,4.9,7.2c1.7,3.5,2.9,6.4,3.4,8.6c0.5-0.8,0.9-1.2,1.2-1c0.4,0.2,0.3,0.7-0.2,1.5c-0.1,0.2-0.3,0.5-0.6,0.9
			s-0.5,0.7-0.6,0.9c-0.1,0.2-0.2,0.4-0.3,0.7c-0.1,0.3-0.2,0.6-0.3,0.7C362.3,584.4,360,584.7,357,582.9z M362,579.8
			c-0.3-1.9-1.2-4.4-2.8-7.5c-1.5-2.8-2.9-5.1-4.4-6.7l1.8,14.6c0.5-0.6,1.4-0.9,2.6-0.8L362,579.8z M362.3,581.1l-2.6-0.5
			c-1.3-0.2-2-0.1-2.3,0.3c-0.3,0.4-0.1,0.8,0.5,1.2s1.3,0.5,2.2,0.5c1,0,1.6-0.3,2-0.9C362.4,581.5,362.4,581.3,362.3,581.1z"/>
		<path class="st3" d="M373.4,554.3c1.1,5,1.1,8.3,0.2,9.9c-0.7,1.2-1.6,1.4-2.9,0.7c-1.4-0.8-2.6-2.5-3.6-4.9l-1.9-6l1.5,11.8
			c0.6,6.5,0.3,10.6-0.8,12.5c-0.1,0.2-0.3,0.3-0.5,0.1c-0.3-0.2-0.3-0.6-0.1-1.2c0.3-0.8,0.5-1.7,0.6-2.9c0.2-1.4,0-4.6-0.5-9.6
			c-0.2-2.3-0.7-5.8-1.4-10.4c-0.2-0.8-0.4-2.1-0.6-3.8c0-0.6,0.1-1.2,0.3-1.5c0.6-1.1,1.3-1.4,2-1c0.7,0.4,1.6,2.7,2.8,7
			c1.2,4.3,2.4,6.7,3.5,7.4c0.3,0.2,0.5,0.1,0.8-0.2c0.7-1.1,0.1-4.8-1.6-11.1c-1.8-6.3-2.5-9.7-2.2-10.2c0.2-0.3,0.4-0.4,0.8-0.5
			c0.4-0.1,0.7-0.1,1,0.1c0.4,0.3,1.4,2.8,2.8,7.5s2.6,7.4,3.5,7.9c0.4,0.2,0.8,0,1.2-0.6c0.4-0.6,0.7-0.8,1-0.7
			c0.3,0.2,0.2,0.8-0.3,1.7c-0.9,1.6-2,2-3.1,1.4C375.2,556.9,374.3,555.9,373.4,554.3z"/>
		<path class="st3" d="M380.1,534.8l0.8,9.9c0.2,5.2-0.2,8.6-1.3,10.4c-0.1,0.2-0.3,0.3-0.5,0.2c-0.3-0.2-0.3-0.7,0-1.4
			c0.4-0.8,0.6-2,0.7-3.3c0.1-1.6,0-4.5-0.3-8.7c-0.2-3-0.5-6.3-0.9-9.8c-2.3-5.1-4.3-11.5-6-19.2c-1.9-8.5-2.3-13.6-1.2-15.5
			c0.5-0.9,1.2-1,2.1-0.5c2.2,1.3,4.1,6.2,5.8,14.6c1,5.3,1.7,10.9,2.2,16.7c0.1,1.3,0.8,3.4,2.2,6.1c1.4,2.8,2.5,4.5,3.4,5
			c0.4,0.3,1-0.1,1.6-1.2c0.1-0.2,0.4-0.3,0.6-0.1c0.3,0.2,0.2,0.8-0.4,1.8c-0.9,1.5-2.1,1.9-3.6,1
			C383.8,539.9,382,537.9,380.1,534.8z M372.1,498c-0.4,0.7,0.5,5.2,3,13.5c2.3,7.9,4,13,5.2,15.5c-2.1-17.8-4.6-27.5-7.4-29.2
			C372.5,497.6,372.3,497.6,372.1,498z"/>
		<path class="st3" d="M389.9,525.1c0.8,7.2,0.6,11.8-0.5,13.7c-0.1,0.2-0.3,0.3-0.6,0.1c-0.3-0.2-0.4-0.5-0.2-1
			c0.8-1.9,0.9-5.1,0.5-9.6l-0.5-5.2l-0.9-8.4c-0.2-3.7,0.3-6.5,1.5-8.4c0.8-1.4,2-1.8,3.4-1.2c-0.2-1.1-0.3-1.8-0.1-2.1
			c0.4-0.6,0.8-0.8,1.3-0.5c0.6,0.4,1.7,2.9,3.1,7.7s2.5,7.3,3,7.6c0.4,0.2,0.7,0,1.1-0.6c0.4-0.6,0.7-0.8,1-0.7
			c0.4,0.2,0.2,1-0.6,2.2c-0.8,1.3-1.6,1.6-2.7,1c-0.8-0.5-1.7-1.7-2.7-3.6l0.7,5.1c0.2,2.4,0,4.1-0.6,5.2c-1,1.6-2.2,2-3.8,1
			C391.5,526.9,390.7,526.1,389.9,525.1z M390.4,506.5c-0.7,1.1-0.5,4.3,0.6,9.6s2.1,8.3,3.2,8.9c0.5,0.3,0.9,0.2,1.1-0.3
			c0.6-1.1,0.5-4.3-0.5-9.6c-1-5.3-2-8.3-3.1-8.9C391.2,505.9,390.7,506,390.4,506.5z"/>
	</g>
	<path class="st4" d="M424,424.3"/>
	<path class="st4" d="M434.2,444.2"/>
	<path class="st5" d="M287.3,251.1"/>
	<path class="st6" d="M390.9,311.3"/>
	<path class="st6" d="M354.6,276.6"/>
	<path class="st7" d="M466.3,383.6"/>
	<path class="st8" d="M359.3,408.7"/>
	<path class="st9" d="M567.5,314.5"/>
	<path class="st10" d="M253.2,272.4"/>
</g>
</svg>
